<svg width="160" height="42" viewBox="0 0 160 42" fill="none" xmlns="http://www.w3.org/2000/svg">
	<path d="M0.422 25.862H24.492V17.626H9.412V9.042H26.58V0.457996H0.422V25.862ZM0.422 41.058H9.47V25.862L0.422 34.968V41.058ZM32.1503 41.058H58.2503V32.416H40.7343L32.1503 41.058ZM31.7443 0.457996V32.416H40.7343V0.457996H31.7443ZM62.5001 41.058H71.6061V8.752L62.5001 17.916V41.058ZM71.6061 8.752V0.457996H62.5001V8.752H71.6061ZM113.553 0.399997H102.939L94.9353 13.566L86.9313 0.399997H76.0853L89.1933 20.7L94.6453 27.834L102.649 41H113.669L100.503 20.816L113.553 0.399997ZM76.0853 41H86.6993L94.6453 27.834H84.5533L76.0853 41ZM117.781 41.058H126.887V8.752L117.781 17.916V41.058ZM126.887 8.752V0.457996H117.781V8.752H126.887ZM143.141 24.644L134.151 33.75V41.058H159.903V32.416H143.141V24.644ZM158.279 16.698H143.141V8.984H159.845V0.457996H134.151V24.644H158.279V16.698Z" fill="white"/>
</svg>
